Coordinates
version=1
nRows=9
nColumns=36
inDegrees=yes

Units are S.I. units (second, meters, Newtons, ...)
If the header above contains a line with 'inDegrees', this indicates whether rotational values are in degrees (yes) or radians (no).

endheader
time	pelvis_tilt	pelvis_list	pelvis_rotation	pelvis_tx	pelvis_ty	pelvis_tz	hip_flexion_r	hip_adduction_r	hip_rotation_r	knee_angle_r	knee_angle_r_beta	ankle_angle_r	subtalar_angle_r	mtp_angle_r	hip_flexion_l	hip_adduction_l	hip_rotation_l	knee_angle_l	knee_angle_l_beta	ankle_angle_l	subtalar_angle_l	mtp_angle_l	lumbar_extension	lumbar_bending	lumbar_rotation	arm_flex_r	arm_add_r	arm_rot_r	elbow_flex_r	pro_sup_r	arm_flex_l	arm_add_l	arm_rot_l	elbow_flex_l	pro_sup_l
      1.10000000	     -5.95181235	      3.48843471	      4.68149004	     -0.47501143	      1.23305250	     -0.52907880	     34.47395394	     -8.32474698	     -0.17281550	     24.39195076	      0.42571985	    -31.28356357	    -16.29650236	     -6.28504529	     35.39803151	     -8.45473400	     -3.40001391	     26.21980473	      0.45762192	    -29.79323716	     -6.17544742	     -6.28504529	    -33.82419667	     -9.02392651	     -0.34845750	    -29.06697382	    -18.45594217	    -15.05139751	    101.30345883	    110.62577156	     -3.85634833	    -41.33669008	      1.22076186	    113.33443106	    108.38865352
      1.11000000	     -5.54372105	      3.62843045	      4.11629813	     -0.46473809	      1.20753050	     -0.52768664	     35.10186589	     -8.08737250	      1.19786830	     25.76316566	      0.44965207	    -33.63862924	    -18.51435359	     -6.33333847	     35.82664030	     -8.67873761	     -2.96019023	     28.03321105	      0.48927183	    -30.36482614	     -7.78237698	     -6.33333847	    -33.92944557	     -9.31516135	     -0.29323348	    -27.43162806	    -18.37843573	    -14.69679102	    101.23171724	    110.91008018	     -3.68062647	    -40.82197707	      1.01145724	    113.37533603	    108.46149684
      1.12000000	     -5.14072389	      3.75555514	      3.44300211	     -0.45462427	      1.18069819	     -0.52608276	     35.92529530	     -7.81038956	      2.47658328	     27.40705822	      0.47834340	    -34.38846064	    -18.67509597	     -6.38691313	     36.50418051	     -9.06353156	     -2.77115271	     30.44916911	      0.53143826	    -30.20398747	     -8.09834738	     -6.38691313	    -34.07328108	     -9.67794671	     -0.03494158	    -25.82200628	    -18.39019515	    -14.33366157	    101.35670508	    110.54277126	     -3.08046802	    -40.23888708	      0.99914975	    113.58837218	    108.00048269
      1.13000000	     -4.74709563	      3.76252987	      2.74646728	     -0.44490194	      1.15270774	     -0.52445762	     37.08064554	     -7.52068281	      2.97391059	     30.39352653	      0.53046711	    -31.73676448	    -19.35572834	     -6.44523049	     37.38188764	     -9.55760411	     -2.39669940	     33.05473667	      0.57691399	    -30.42471412	     -7.63316164	     -6.44523049	    -34.29338304	     -9.95311737	      0.35047305	    -24.16742762	    -18.63594449	    -13.83691617	    101.67473320	    109.26790396	     -2.12656255	    -39.71503573	      1.21054880	    113.96816523	    106.79486249
      1.14000000	     -4.89240770	      3.94453994	      1.94471106	     -0.43596801	      1.12284954	     -0.52288825	     39.51708287	     -7.39720678	      3.42671051	     36.09165077	      0.62991814	    -22.16768640	    -19.48784533	     -6.55855955	     38.92486576	     -9.91848927	     -2.30361443	     36.12919339	      0.63057338	    -30.83760668	     -9.34002137	     -6.55855955	    -33.95900373	    -10.45515510	      0.69391216	    -22.31203204	    -18.89489990	    -13.38633542	    101.88239965	    108.66863222	     -0.98947712	    -39.18812152	      1.52864785	    114.03328660	    105.80233732
      1.15000000	     -4.75948345	      4.20088009	      1.19695861	     -0.42768687	      1.09263710	     -0.52140058	     41.85809123	     -7.32571867	      4.23365102	     43.03822983	      0.75115881	     -8.75057204	    -17.51917361	     -6.69675500	     40.41347707	    -10.29510271	     -2.26565037	     40.92856851	      0.71433828	    -25.65179457	    -11.05591039	     -6.69675500	    -34.13475388	    -10.95378518	      1.02214490	    -20.38454826	    -19.36672792	    -12.87985782	    102.39979380	    107.61268946	      0.76004764	    -38.79638791	      2.20963317	    114.30067698	    104.46456546
      1.16000000	     -4.79396144	      4.24026186	      0.43910242	     -0.42035876	      1.06217415	     -0.52013835	     44.04282949	     -7.04877013	      5.14676657	     48.92924065	      0.85397635	      1.95949197	    -15.62566395	     -6.83727813	     42.52491141	    -10.86641746	     -1.77773300	     47.64544091	      0.83156982	    -15.39118904	    -12.52393593	     -6.83727813	    -34.23250256	    -11.25313572	      1.57638469	    -18.24211536	    -20.01324739	    -12.78486308	    102.45710473	    112.64947470	      3.11509219	    -38.24611917	      2.85155643	    113.67650085	    108.46070126
      1.17000000	     -5.37963687	      3.89894588	     -0.55974379	     -0.41462271	      1.03223825	     -0.51919718	     46.73484447	     -6.48560393	      5.51539992	     53.64367706	      0.93625879	      8.99872745	    -14.28631543	     -6.91551810	     45.41106698	    -11.91850189	     -1.04356697	     54.41558844	      0.94973118	     -4.71699386	    -12.17935929	     -6.91551810	    -33.98327195	    -11.30035821	      2.23870000	    -15.42743299	    -21.19583856	    -11.76932638	    102.68806010	    110.61729256	      5.38927955	    -37.38573930	      3.45066668	    113.68034003	    106.73945238
      1.18000000	     -6.68646059	      3.76021008	     -1.87868281	     -0.41063659	      1.00355572	     -0.51849494	     51.12584910	     -6.00392496	      5.60031203	     58.86906454	      1.02745900	     13.27815858	    -12.38039907	     -6.96185240	     48.44677278	    -12.95643164	     -0.80617204	     59.27116080	      1.03447691	      2.73220336	    -12.60645663	     -6.96185240	    -33.25579528	    -11.68904713	      3.11408801	    -12.11101391	    -22.46166830	    -10.79172168	    102.30520379	    111.13735459	      8.17831160	    -36.32736431	      4.14112865	    112.97462279	    107.25329879
